<?xml version="1.0" encoding="UTF-8" standalone="no"?>
<svg
   version="1.1"
   width="1120px"
   height="1120px"
   style="shape-rendering:geometricPrecision; text-rendering:geometricPrecision; image-rendering:optimizeQuality; fill-rule:evenodd; clip-rule:evenodd"
   id="svg48"
   sodipodi:docname="petmap.svg"
   inkscape:version="1.4.2 (ebf0e940d0, 2025-05-08)"
   xmlns:inkscape="http://www.inkscape.org/namespaces/inkscape"
   xmlns:sodipodi="http://sodipodi.sourceforge.net/DTD/sodipodi-0.dtd"
   xmlns="http://www.w3.org/2000/svg"
   xmlns:svg="http://www.w3.org/2000/svg">
  <defs
     id="defs48" />
  <sodipodi:namedview
     id="namedview48"
     pagecolor="#ffffff"
     bordercolor="#000000"
     borderopacity="0.25"
     inkscape:showpageshadow="2"
     inkscape:pageopacity="0.0"
     inkscape:pagecheckerboard="0"
     inkscape:deskcolor="#d1d1d1"
     inkscape:zoom="0.71339286"
     inkscape:cx="380.57572"
     inkscape:cy="457.67209"
     inkscape:window-width="1920"
     inkscape:window-height="1008"
     inkscape:window-x="0"
     inkscape:window-y="0"
     inkscape:window-maximized="1"
     inkscape:current-layer="svg48" />
  <g
     id="g2">
    <path
       style="opacity:1"
       fill="#fbfcfc"
       d="M 659.5,344.5 C 641.092,345.801 622.759,347.801 604.5,350.5C 605.333,350.833 606.167,351.167 607,351.5C 624.784,349.37 642.617,347.703 660.5,346.5C 661.5,346.5 662.5,346.5 663.5,346.5C 661.804,351.212 660.137,355.878 658.5,360.5C 657.5,360.5 656.5,360.5 655.5,360.5C 638.943,357.437 622.277,356.437 605.5,357.5C 618.514,358.405 631.514,359.405 644.5,360.5C 647.845,362.217 651.511,362.884 655.5,362.5C 654.882,365.398 653.715,368.065 652,370.5C 651.124,372.635 649.624,373.969 647.5,374.5C 636.956,370.708 626.289,367.208 615.5,364C 612.515,363.132 609.515,362.799 606.5,363C 619.474,367.046 632.474,371.213 645.5,375.5C 646.091,376.151 646.757,376.818 647.5,377.5C 644.279,381.547 641.279,385.714 638.5,390C 646.648,407.415 653.815,425.248 660,443.5C 663.031,456.354 665.198,469.354 666.5,482.5C 666.5,482.833 666.5,483.167 666.5,483.5C 663.351,483.211 660.351,483.711 657.5,485C 648.474,492.901 641.807,502.401 637.5,513.5C 635.396,517.025 633.896,520.691 633,524.5C 646.719,530.547 657.719,539.88 666,552.5C 674.659,566.148 680.826,580.815 684.5,596.5C 684.294,599.495 684.96,602.162 686.5,604.5C 687.228,607.079 687.728,609.746 688,612.5C 688.333,634.833 688.667,657.167 689,679.5C 689.714,688.236 690.881,696.903 692.5,705.5C 692.917,708.079 692.25,710.246 690.5,712C 692.363,713.418 692.863,715.251 692,717.5C 689.346,725.113 686.846,732.78 684.5,740.5C 679.731,749.268 675.231,758.268 671,767.5C 667.626,773.342 663.792,778.675 659.5,783.5C 659.65,775.452 657.317,768.286 652.5,762C 649.433,760.836 647.767,761.836 647.5,765C 654.034,782.068 651.034,797.068 638.5,810C 625.954,817.963 612.954,818.63 599.5,812C 589.008,806.504 579.341,799.837 570.5,792C 569.127,791.125 567.627,790.625 566,790.5C 556.329,797.93 546.162,804.764 535.5,811C 522.35,818.047 509.35,818.047 496.5,811C 483.998,797.744 480.998,782.411 487.5,765C 486.253,759.913 484.087,759.413 481,763.5C 477.479,768.633 475.646,774.3 475.5,780.5C 474.549,781.919 474.216,783.585 474.5,785.5C 473.5,785.5 472.5,785.5 471.5,785.5C 471.252,793.508 472.752,801.175 476,808.5C 492.12,838.617 516.287,859.45 548.5,871C 565.287,875.18 581.62,873.847 597.5,867C 616.484,857.95 632.651,845.45 646,829.5C 650.148,823.536 653.481,817.202 656,810.5C 656.499,814.821 656.666,819.154 656.5,823.5C 654.525,849.116 645.525,871.782 629.5,891.5C 628.833,891.5 628.5,891.833 628.5,892.5C 552.571,893.497 476.571,893.83 400.5,893.5C 401.184,887.094 402.351,880.761 404,874.5C 406.664,867.182 409.331,859.849 412,852.5C 414.781,847.049 417.114,841.382 419,835.5C 433.088,810.615 442.755,783.948 448,755.5C 448.667,754.167 449.333,754.167 450,755.5C 451.208,758.92 452.708,762.253 454.5,765.5C 455.5,765 456.5,764.5 457.5,764C 456.751,762.266 456.251,760.433 456,758.5C 455.667,759.5 455.333,760.5 455,761.5C 450.089,745.332 445.589,728.998 441.5,712.5C 442.598,708.577 443.265,704.577 443.5,700.5C 445.01,689.068 445.677,677.568 445.5,666C 444.913,649.165 444.747,632.332 445,615.5C 447.925,585.326 459.758,559.326 480.5,537.5C 485.238,533.422 490.238,529.756 495.5,526.5C 499.447,531.694 502.947,537.361 506,543.5C 507.451,545.464 509.284,546.797 511.5,547.5C 519.791,559.235 530.457,561.735 543.5,555C 545.464,553.549 546.797,551.716 547.5,549.5C 549.861,547.806 551.861,545.806 553.5,543.5C 554.496,543.586 555.329,543.252 556,542.5C 556.825,532.325 556.658,522.325 555.5,512.5C 552.958,499.095 547.958,486.761 540.5,475.5C 537.254,469.582 533.587,463.915 529.5,458.5C 515.796,437.409 499.296,435.076 480,451.5C 476.62,457.378 472.12,462.045 466.5,465.5C 464.801,465.66 463.134,465.494 461.5,465C 460.903,463.938 460.57,462.772 460.5,461.5C 462.156,455.209 463.656,448.876 465,442.5C 470.871,427.692 476.205,412.692 481,397.5C 482.127,394.801 483.627,392.301 485.5,390C 483.014,386.844 480.514,383.678 478,380.5C 477.421,379.072 477.588,377.738 478.5,376.5C 491.598,370.474 505.265,366.14 519.5,363.5C 514.414,362.512 509.414,363.012 504.5,365C 495.128,367.622 486.128,371.122 477.5,375.5C 476.061,376.509 474.728,376.176 473.5,374.5C 471.466,370.48 469.466,366.48 467.5,362.5C 471.642,361.96 475.642,361.294 479.5,360.5C 492.809,359.279 506.142,358.279 519.5,357.5C 505.064,356.032 490.73,356.699 476.5,359.5C 473.214,360.207 469.881,360.54 466.5,360.5C 465.5,360.5 464.5,360.5 463.5,360.5C 463.636,355.838 462.636,351.505 460.5,347.5C 480.435,349.874 500.435,351.04 520.5,351C 502.869,349.225 485.202,347.725 467.5,346.5C 465.302,345.835 462.969,345.168 460.5,344.5C 459.593,341.579 459.26,338.579 459.5,335.5C 460.833,335.5 462.167,335.5 463.5,335.5C 471.534,336.34 479.534,337.507 487.5,339C 512.496,342.575 531.996,334.075 546,313.5C 555.017,296.566 558.017,278.566 555,259.5C 553.928,255.453 552.761,251.453 551.5,247.5C 551.345,243.88 550.345,240.546 548.5,237.5C 563.644,235.783 578.644,236.616 593.5,240C 597.895,242.54 602.561,243.04 607.5,241.5C 621.537,231.818 635.87,222.652 650.5,214C 658.91,208.96 664.076,211.127 666,220.5C 666.937,245.448 664.437,269.948 658.5,294C 661.04,302.357 663.207,310.857 665,319.5C 665.5,327.493 665.666,335.493 665.5,343.5C 663.265,343.205 661.265,343.539 659.5,344.5 Z"
       id="path2" />
  </g>
  <g
     id="g3">
    <path
       style="opacity:1"
       fill="#686c77"
       d="M 551.5,247.5 C 552.761,251.453 553.928,255.453 555,259.5C 558.017,278.566 555.017,296.566 546,313.5C 531.996,334.075 512.496,342.575 487.5,339C 479.534,337.507 471.534,336.34 463.5,335.5C 461.735,334.539 459.735,334.205 457.5,334.5C 457.5,333.5 457.5,332.5 457.5,331.5C 456.916,318.535 458.916,306.035 463.5,294C 461.873,286.349 460.206,278.849 458.5,271.5C 458.5,270.833 458.5,270.167 458.5,269.5C 455.755,252.65 454.755,235.65 455.5,218.5C 456.456,215.044 458.623,212.711 462,211.5C 471.724,214.887 480.891,219.387 489.5,225C 497.989,231.152 506.489,237.319 515,243.5C 525.47,239.505 536.303,237.171 547.5,236.5C 548.387,240.419 549.721,244.085 551.5,247.5 Z"
       id="path3" />
  </g>
  <g
     id="g4">
    <path
       style="opacity:1"
       fill="#a58c9a"
       d="M 463.5,224.5 C 465.167,224.5 466.833,224.5 468.5,224.5C 468.5,225.5 468.5,226.5 468.5,227.5C 476.978,229.405 484.311,233.405 490.5,239.5C 492.045,240.452 493.712,240.785 495.5,240.5C 496.828,243.356 497.828,246.356 498.5,249.5C 495.513,249.998 492.513,250.498 489.5,251C 487.839,257.159 484.172,261.659 478.5,264.5C 477.638,269.629 474.971,273.629 470.5,276.5C 466.095,265.114 463.762,253.281 463.5,241C 464.383,235.55 464.383,230.05 463.5,224.5 Z"
       id="path4" />
  </g>
  <g
     id="g5">
    <path
       style="opacity:1"
       fill="#9992a1"
       d="M 654.5,220.5 C 655.833,220.5 657.167,220.5 658.5,220.5C 659.514,229.477 659.681,238.477 659,247.5C 656.592,259.76 654.592,272.093 653,284.5C 643.534,269.532 631.367,257.532 616.5,248.5C 620.847,244.155 625.514,240.155 630.5,236.5C 638.565,231.143 646.565,225.81 654.5,220.5 Z"
       id="path5" />
  </g>
  <g
     id="g6">
    <path
       style="opacity:1"
       fill="#1d232f"
       d="M 734.5,436.5 C 735.463,437.363 735.463,438.03 734.5,438.5C 730.878,435.375 726.878,432.875 722.5,431C 719.078,428.808 716.412,425.975 714.5,422.5C 715.5,422.5 716.5,422.5 717.5,422.5C 718.978,422.762 720.311,422.429 721.5,421.5C 721.942,420.261 722.609,419.261 723.5,418.5C 725.03,419.067 726.53,419.733 728,420.5C 730.105,416.242 733.605,414.575 738.5,415.5C 738.725,417.716 737.892,419.383 736,420.5C 735.29,419.027 734.124,418.36 732.5,418.5C 731.908,426.788 734.408,428.121 740,422.5C 742.422,422.954 744.922,423.121 747.5,423C 746.833,423.333 746.167,423.667 745.5,424C 749.179,426.035 753.179,427.201 757.5,427.5C 758.741,426.963 759.908,426.296 761,425.5C 763.099,426.287 765.266,426.62 767.5,426.5C 767.5,425.167 767.5,423.833 767.5,422.5C 763.606,422.89 759.94,422.223 756.5,420.5C 756.863,419.817 757.196,419.15 757.5,418.5C 783.124,424.094 805.791,418.427 825.5,401.5C 829.876,398.126 833.542,394.126 836.5,389.5C 848.532,372.885 853.032,354.219 850,333.5C 839.81,289.992 812.31,269.159 767.5,271C 758.489,272.17 750.156,275.003 742.5,279.5C 735.036,282.63 728.703,287.297 723.5,293.5C 713.926,302.946 707.426,314.279 704,327.5C 697.437,371.669 714.604,402.002 755.5,418.5C 755.082,419.222 754.416,419.722 753.5,420C 755.881,421.247 755.547,421.58 752.5,421C 749.761,420.202 747.761,418.535 746.5,416C 744.167,415.667 741.833,415.333 739.5,415C 739.833,414.667 740.167,414.333 740.5,414C 739.069,413.535 737.903,412.701 737,411.5C 736.667,412.167 736.333,412.833 736,413.5C 734.62,410.942 733.12,410.942 731.5,413.5C 729.844,411.978 728.677,412.311 728,414.5C 726.126,412.14 724.626,412.473 723.5,415.5C 719.019,413.541 715.185,410.541 712,406.5C 689.189,377.5 683.855,345.5 696,310.5C 711.702,276.726 738.202,259.06 775.5,257.5C 822.579,259.747 851.746,283.747 863,329.5C 867.363,365.446 855.529,394.613 827.5,417C 800.187,435.238 771.187,438.404 740.5,426.5C 737.897,428.275 735.73,430.608 734,433.5C 733.26,434.749 733.427,435.749 734.5,436.5 Z"
       id="path6" />
  </g>
  <g
     id="g7">
    <path
       style="opacity:1"
       fill="#b0b9c6"
       d="M 455.5,218.5 C 454.755,235.65 455.755,252.65 458.5,269.5C 457.21,268.942 456.377,267.942 456,266.5C 453.336,250.352 453.169,234.352 455.5,218.5 Z"
       id="path7" />
  </g>
  <g
     id="g8">
    <path
       style="opacity:1"
       fill="#cbdde1"
       d="M 836.5,389.5 C 836.322,388.305 835.989,387.138 835.5,386C 835.892,384.989 836.559,384.489 837.5,384.5C 836.826,381.826 835.159,380.159 832.5,379.5C 832.25,375.276 830.75,371.609 828,368.5C 809.693,349.938 791.526,331.271 773.5,312.5C 770.727,309.937 768.727,306.937 767.5,303.5C 763.186,302.519 760.519,299.852 759.5,295.5C 757.567,295.271 755.9,294.438 754.5,293C 750.825,288.104 746.825,283.604 742.5,279.5C 750.156,275.003 758.489,272.17 767.5,271C 812.31,269.159 839.81,289.992 850,333.5C 853.032,354.219 848.532,372.885 836.5,389.5 Z"
       id="path8" />
  </g>
  <g
     id="g9">
    <path
       style="opacity:1"
       fill="#d2e4e8"
       d="M 742.5,279.5 C 746.825,283.604 750.825,288.104 754.5,293C 755.9,294.438 757.567,295.271 759.5,295.5C 760.519,299.852 763.186,302.519 767.5,303.5C 768.727,306.937 770.727,309.937 773.5,312.5C 791.526,331.271 809.693,349.938 828,368.5C 830.75,371.609 832.25,375.276 832.5,379.5C 835.159,380.159 836.826,381.826 837.5,384.5C 836.559,384.489 835.892,384.989 835.5,386C 835.989,387.138 836.322,388.305 836.5,389.5C 833.542,394.126 829.876,398.126 825.5,401.5C 792.562,369.73 760.562,337.23 729.5,304C 725.642,303.921 721.976,303.254 718.5,302C 720.895,301.319 723.228,300.485 725.5,299.5C 723.896,297.821 723.229,295.821 723.5,293.5C 728.703,287.297 735.036,282.63 742.5,279.5 Z"
       id="path9" />
  </g>
  <g
     id="g10">
    <path
       style="opacity:1"
       fill="#cadce0"
       d="M 723.5,293.5 C 723.229,295.821 723.896,297.821 725.5,299.5C 723.228,300.485 720.895,301.319 718.5,302C 721.976,303.254 725.642,303.921 729.5,304C 760.562,337.23 792.562,369.73 825.5,401.5C 805.791,418.427 783.124,424.094 757.5,418.5C 756.833,418.5 756.167,418.5 755.5,418.5C 714.604,402.002 697.437,371.669 704,327.5C 707.426,314.279 713.926,302.946 723.5,293.5 Z"
       id="path10" />
  </g>
  <g
     id="g11">
    <path
       style="opacity:1"
       fill="#20232e"
       d="M 511.5,302.5 C 521.601,302.621 525.768,307.621 524,317.5C 520.843,322.492 516.343,324.325 510.5,323C 504.37,318.927 502.87,313.427 506,306.5C 507.812,305.023 509.645,303.69 511.5,302.5 Z"
       id="path11" />
  </g>
  <g
     id="g12">
    <path
       style="opacity:1"
       fill="#1d2430"
       d="M 604.5,303.5 C 615.013,301.855 619.846,306.189 619,316.5C 616.747,322.926 612.247,325.426 605.5,324C 596.636,317.628 596.302,310.795 604.5,303.5 Z"
       id="path12" />
  </g>
  <g
     id="g13">
    <path
       style="opacity:1"
       fill="#a9afbe"
       d="M 458.5,271.5 C 460.206,278.849 461.873,286.349 463.5,294C 458.916,306.035 456.916,318.535 457.5,331.5C 456.216,320.227 456.883,308.894 459.5,297.5C 461.291,297.038 462.291,295.871 462.5,294C 459.419,286.886 458.086,279.386 458.5,271.5 Z"
       id="path13" />
  </g>
  <g
     id="g14">
    <path
       style="opacity:1"
       fill="#535557"
       d="M 460.5,347.5 C 462.607,346.532 464.941,346.198 467.5,346.5C 485.202,347.725 502.869,349.225 520.5,351C 500.435,351.04 480.435,349.874 460.5,347.5 Z"
       id="path14" />
  </g>
  <g
     id="g15">
    <path
       style="opacity:1"
       fill="#2a2e2f"
       d="M 659.5,344.5 C 660.873,344.343 662.207,344.51 663.5,345C 662.263,345.232 661.263,345.732 660.5,346.5C 642.617,347.703 624.784,349.37 607,351.5C 606.167,351.167 605.333,350.833 604.5,350.5C 622.759,347.801 641.092,345.801 659.5,344.5 Z"
       id="path15" />
  </g>
  <g
     id="g16">
    <path
       style="opacity:1"
       fill="#35383c"
       d="M 655.5,360.5 C 652.006,361.335 648.34,361.335 644.5,360.5C 631.514,359.405 618.514,358.405 605.5,357.5C 622.277,356.437 638.943,357.437 655.5,360.5 Z"
       id="path16" />
  </g>
  <g
     id="g17">
    <path
       style="opacity:1"
       fill="#3a3e43"
       d="M 479.5,360.5 C 478.209,360.737 477.209,360.404 476.5,359.5C 490.73,356.699 505.064,356.032 519.5,357.5C 506.142,358.279 492.809,359.279 479.5,360.5 Z"
       id="path17" />
  </g>
  <g
     id="g18">
    <path
       style="opacity:1"
       fill="#6d6d6f"
       d="M 476.5,359.5 C 477.209,360.404 478.209,360.737 479.5,360.5C 475.642,361.294 471.642,361.96 467.5,362.5C 465.302,362.591 464.969,361.925 466.5,360.5C 469.881,360.54 473.214,360.207 476.5,359.5 Z"
       id="path18" />
  </g>
  <g
     id="g19">
    <path
       style="opacity:1"
       fill="#343638"
       d="M 478.5,376.5 C 477.833,376.5 477.5,376.167 477.5,375.5C 486.128,371.122 495.128,367.622 504.5,365C 509.414,363.012 514.414,362.512 519.5,363.5C 505.265,366.14 491.598,370.474 478.5,376.5 Z"
       id="path19" />
  </g>
  <g
     id="g20">
    <path
       style="opacity:1"
       fill="#323334"
       d="M 647.5,374.5 C 647.158,375.338 646.492,375.672 645.5,375.5C 632.474,371.213 619.474,367.046 606.5,363C 609.515,362.799 612.515,363.132 615.5,364C 626.289,367.208 636.956,370.708 647.5,374.5 Z"
       id="path20" />
  </g>
  <g
     id="g21">
    <path
       style="opacity:1"
       fill="#1e252e"
       d="M 552.5,339.5 C 558.509,339.334 564.509,339.501 570.5,340C 575.115,341.077 576.615,343.91 575,348.5C 572.757,352.748 569.757,356.414 566,359.5C 566.043,368.382 570.543,373.382 579.5,374.5C 581.634,374.485 583.634,373.985 585.5,373C 587.355,371.145 589.188,369.312 591,367.5C 593.995,368.518 594.328,370.184 592,372.5C 584.296,379.984 576.13,380.484 567.5,374C 566.023,371.555 564.19,369.388 562,367.5C 555.647,378.174 546.814,381.007 535.5,376C 533.781,374.13 532.781,371.963 532.5,369.5C 544.778,378.31 553.778,375.643 559.5,361.5C 554.338,357.17 550.671,351.837 548.5,345.5C 549.073,342.938 550.407,340.938 552.5,339.5 Z"
       id="path21" />
  </g>
  <g
     id="g22">
    <path
       style="opacity:1"
       fill="#1b2133"
       d="M 755.5,418.5 C 756.167,418.5 756.833,418.5 757.5,418.5C 757.196,419.15 756.863,419.817 756.5,420.5C 759.94,422.223 763.606,422.89 767.5,422.5C 767.5,423.833 767.5,425.167 767.5,426.5C 765.266,426.62 763.099,426.287 761,425.5C 759.908,426.296 758.741,426.963 757.5,427.5C 753.179,427.201 749.179,426.035 745.5,424C 746.167,423.667 746.833,423.333 747.5,423C 744.922,423.121 742.422,422.954 740,422.5C 734.408,428.121 731.908,426.788 732.5,418.5C 734.124,418.36 735.29,419.027 736,420.5C 737.892,419.383 738.725,417.716 738.5,415.5C 733.605,414.575 730.105,416.242 728,420.5C 726.53,419.733 725.03,419.067 723.5,418.5C 723.5,417.5 723.5,416.5 723.5,415.5C 724.626,412.473 726.126,412.14 728,414.5C 728.677,412.311 729.844,411.978 731.5,413.5C 733.12,410.942 734.62,410.942 736,413.5C 736.333,412.833 736.667,412.167 737,411.5C 737.903,412.701 739.069,413.535 740.5,414C 740.167,414.333 739.833,414.667 739.5,415C 741.833,415.333 744.167,415.667 746.5,416C 747.761,418.535 749.761,420.202 752.5,421C 755.547,421.58 755.881,421.247 753.5,420C 754.416,419.722 755.082,419.222 755.5,418.5 Z"
       id="path22" />
  </g>
  <g
     id="g23">
    <path
       style="opacity:1"
       fill="#686c77"
       d="M 714.5,422.5 C 716.412,425.975 719.078,428.808 722.5,431C 726.878,432.875 730.878,435.375 734.5,438.5C 735.463,438.03 735.463,437.363 734.5,436.5C 736.252,436.418 737.252,437.251 737.5,439C 736.597,441.877 735.597,444.71 734.5,447.5C 718.25,473.366 702.583,499.366 687.5,525.5C 681.173,520.837 674.173,517.504 666.5,515.5C 666.61,504.624 666.61,493.957 666.5,483.5C 666.5,483.167 666.5,482.833 666.5,482.5C 668.484,482.617 670.15,481.95 671.5,480.5C 674.027,474.809 677.527,469.809 682,465.5C 683.456,462.924 684.623,460.258 685.5,457.5C 692.412,448.68 698.579,439.346 704,429.5C 706.022,427.478 708.022,425.478 710,423.5C 711.44,422.852 712.94,422.519 714.5,422.5 Z"
       id="path23" />
  </g>
  <g
     id="g24">
    <path
       style="opacity:1"
       fill="#c5c9d5"
       d="M 717.5,422.5 C 716.5,422.5 715.5,422.5 714.5,422.5C 712.94,422.519 711.44,422.852 710,423.5C 708.022,425.478 706.022,427.478 704,429.5C 698.579,439.346 692.412,448.68 685.5,457.5C 686.287,454.141 687.62,450.975 689.5,448C 686.984,445.164 687.151,442.331 690,439.5C 690.237,444.015 691.903,444.682 695,441.5C 698.058,434.383 701.891,427.717 706.5,421.5C 710.4,420.252 714.067,420.585 717.5,422.5 Z"
       id="path24" />
  </g>
  <g
     id="g25">
    <path
       style="opacity:1"
       fill="#676c76"
       d="M 529.5,458.5 C 528.5,458.5 527.5,458.5 526.5,458.5C 525.327,455.246 522.994,454.08 519.5,455C 535.499,473.493 547.499,494.327 555.5,517.5C 555.961,526.293 555.295,534.96 553.5,543.5C 551.861,545.806 549.861,547.806 547.5,549.5C 547.785,547.712 547.452,546.045 546.5,544.5C 540.1,554.712 531.433,557.212 520.5,552C 517.725,549.597 515.725,546.763 514.5,543.5C 513.476,544.852 512.476,546.185 511.5,547.5C 509.284,546.797 507.451,545.464 506,543.5C 502.947,537.361 499.447,531.694 495.5,526.5C 496.412,525.262 496.579,523.928 496,522.5C 494.245,519.015 492.412,515.681 490.5,512.5C 487.247,508.26 484.914,503.593 483.5,498.5C 482.5,498.5 481.5,498.5 480.5,498.5C 479.634,494.114 477.301,490.614 473.5,488C 468.863,485.772 464.696,482.939 461,479.5C 460.333,480.167 459.667,480.833 459,481.5C 458.809,483.708 458.309,485.708 457.5,487.5C 457.33,480.514 458.664,473.847 461.5,467.5C 463.291,466.83 464.958,466.163 466.5,465.5C 472.12,462.045 476.62,457.378 480,451.5C 499.296,435.076 515.796,437.409 529.5,458.5 Z"
       id="path25" />
  </g>
  <g
     id="g26">
    <path
       style="opacity:1"
       fill="#3d464e"
       d="M 526.5,458.5 C 527.5,458.5 528.5,458.5 529.5,458.5C 533.587,463.915 537.254,469.582 540.5,475.5C 534.357,470.424 529.691,464.757 526.5,458.5 Z"
       id="path26" />
  </g>
  <g
     id="g27">
    <path
       style="opacity:1"
       fill="#5a5f68"
       d="M 490.5,512.5 C 478.725,512.22 467.392,514.22 456.5,518.5C 456.399,508.148 456.733,497.815 457.5,487.5C 458.309,485.708 458.809,483.708 459,481.5C 459.667,480.833 460.333,480.167 461,479.5C 464.696,482.939 468.863,485.772 473.5,488C 477.301,490.614 479.634,494.114 480.5,498.5C 481.5,498.5 482.5,498.5 483.5,498.5C 484.914,503.593 487.247,508.26 490.5,512.5 Z"
       id="path27" />
  </g>
  <g
     id="g28">
    <path
       style="opacity:1"
       fill="#272d34"
       d="M 526.5,458.5 C 529.691,464.757 534.357,470.424 540.5,475.5C 547.958,486.761 552.958,499.095 555.5,512.5C 555.5,514.167 555.5,515.833 555.5,517.5C 547.499,494.327 535.499,473.493 519.5,455C 522.994,454.08 525.327,455.246 526.5,458.5 Z"
       id="path28" />
  </g>
  <g
     id="g29">
    <path
       style="opacity:1"
       fill="#51565d"
       d="M 666.5,483.5 C 666.61,493.957 666.61,504.624 666.5,515.5C 656.94,513.134 647.274,512.467 637.5,513.5C 641.807,502.401 648.474,492.901 657.5,485C 660.351,483.711 663.351,483.211 666.5,483.5 Z"
       id="path29" />
  </g>
  <g
     id="g30">
    <path
       style="opacity:1"
       fill="#382d30"
       d="M 607.5,451.5 C 609.355,451.272 610.188,451.939 610,453.5C 595.141,472.878 582.974,493.878 573.5,516.5C 572.651,513.19 572.818,509.856 574,506.5C 581.137,485.53 592.304,467.197 607.5,451.5 Z"
       id="path30" />
  </g>
  <g
     id="g31">
    <path
       style="opacity:1"
       fill="#1e2431"
       d="M 456.5,518.5 C 467.392,514.22 478.725,512.22 490.5,512.5C 492.412,515.681 494.245,519.015 496,522.5C 496.579,523.928 496.412,525.262 495.5,526.5C 490.238,529.756 485.238,533.422 480.5,537.5C 459.758,559.326 447.925,585.326 445,615.5C 444.747,632.332 444.913,649.165 445.5,666C 445.677,677.568 445.01,689.068 443.5,700.5C 439.35,718.291 430.017,732.791 415.5,744C 407.809,748.777 402.642,746.944 400,738.5C 400.495,727.295 397.829,716.962 392,707.5C 379,692.5 366,677.5 353,662.5C 341.49,644.617 337.823,625.284 342,604.5C 347.019,593.674 354.519,584.84 364.5,578C 386.518,564.995 407.851,550.995 428.5,536C 424.09,503.513 410.09,475.847 386.5,453C 378.845,445.67 369.845,440.67 359.5,438C 351.173,436.685 343.173,437.685 335.5,441C 321.386,443.958 313.053,438.458 310.5,424.5C 310.868,421.362 311.701,418.362 313,415.5C 318.492,409.169 325.325,405.002 333.5,403C 354.006,400.877 373.006,405.211 390.5,416C 417.97,434.808 437.137,459.975 448,491.5C 451.111,501.11 453.945,510.11 456.5,518.5 Z"
       id="path31" />
  </g>
  <g
     id="g32">
    <path
       style="opacity:1"
       fill="#1e2432"
       d="M 666.5,515.5 C 674.173,517.504 681.173,520.837 687.5,525.5C 716.412,546.302 746.079,566.135 776.5,585C 790.395,598.73 795.228,615.23 791,634.5C 788.649,644.535 784.649,653.869 779,662.5C 766.045,679.124 752.712,695.457 739,711.5C 735.36,721.131 733.36,731.131 733,741.5C 730.241,746.303 726.241,747.636 721,745.5C 706.845,735.538 697.345,722.205 692.5,705.5C 690.881,696.903 689.714,688.236 689,679.5C 688.667,657.167 688.333,634.833 688,612.5C 687.728,609.746 687.228,607.079 686.5,604.5C 686.435,601.572 685.768,598.905 684.5,596.5C 680.826,580.815 674.659,566.148 666,552.5C 657.719,539.88 646.719,530.547 633,524.5C 633.896,520.691 635.396,517.025 637.5,513.5C 647.274,512.467 656.94,513.134 666.5,515.5 Z"
       id="path32" />
  </g>
  <g
     id="g33">
    <path
       style="opacity:1"
       fill="#d1d4e2"
       d="M 555.5,512.5 C 556.658,522.325 556.825,532.325 556,542.5C 555.329,543.252 554.496,543.586 553.5,543.5C 555.295,534.96 555.961,526.293 555.5,517.5C 555.5,515.833 555.5,514.167 555.5,512.5 Z"
       id="path33" />
  </g>
  <g
     id="g34">
    <path
       style="opacity:1"
       fill="#222730"
       d="M 614.5,543.5 C 616.948,543.085 618.281,544.085 618.5,546.5C 616.123,553.038 611.456,556.871 604.5,558C 596.277,560.22 590.277,557.553 586.5,550C 586.725,548.379 587.558,547.212 589,546.5C 594.42,553.806 601.253,555.306 609.5,551C 611.797,548.901 613.464,546.401 614.5,543.5 Z"
       id="path34" />
  </g>
  <g
     id="g35">
    <path
       style="opacity:1"
       fill="#24242a"
       d="M 547.5,549.5 C 546.797,551.716 545.464,553.549 543.5,555C 530.457,561.735 519.791,559.235 511.5,547.5C 512.476,546.185 513.476,544.852 514.5,543.5C 515.725,546.763 517.725,549.597 520.5,552C 531.433,557.212 540.1,554.712 546.5,544.5C 547.452,546.045 547.785,547.712 547.5,549.5 Z"
       id="path35" />
  </g>
  <g
     id="g36">
    <path
       style="opacity:1"
       fill="#1f2432"
       d="M 507.5,587.5 C 518.791,586.09 529.457,587.924 539.5,593C 546.059,598.284 549.893,605.117 551,613.5C 553.799,634.18 549.465,653.18 538,670.5C 529.412,681.759 520.079,692.426 510,702.5C 505.089,708.655 500.423,714.989 496,721.5C 489.857,728.138 482.69,729.304 474.5,725C 473.213,723.59 472.046,722.09 471,720.5C 460.211,694.524 456.211,667.524 459,639.5C 465.428,612.907 481.595,595.574 507.5,587.5 Z"
       id="path36" />
  </g>
  <g
     id="g37">
    <path
       style="opacity:1"
       fill="#1e2431"
       d="M 606.5,587.5 C 643.976,586.982 666.809,604.982 675,641.5C 677.61,668.903 673.61,695.237 663,720.5C 657.82,726.424 651.32,728.591 643.5,727C 641.376,725.878 639.543,724.378 638,722.5C 633.736,714.972 628.736,707.972 623,701.5C 612.921,691.426 603.588,680.759 595,669.5C 582.59,650.039 578.923,629.039 584,606.5C 588.5,596.515 596,590.182 606.5,587.5 Z"
       id="path37" />
  </g>
  <g
     id="g38">
    <path
       style="opacity:1"
       fill="#a3a7ac"
       d="M 684.5,596.5 C 685.768,598.905 686.435,601.572 686.5,604.5C 684.96,602.162 684.294,599.495 684.5,596.5 Z"
       id="path38" />
  </g>
  <g
     id="g39">
    <path
       style="opacity:1"
       fill="#eceef0"
       d="M 485.5,645.5 C 487.167,645.5 488.833,645.5 490.5,645.5C 491.766,657.302 497.766,660.468 508.5,655C 510.902,652.297 512.235,649.13 512.5,645.5C 514.467,645.261 516.301,645.594 518,646.5C 517.755,657.245 512.255,662.912 501.5,663.5C 493.085,663.594 487.585,659.594 485,651.5C 484.322,649.402 484.489,647.402 485.5,645.5 Z"
       id="path39" />
  </g>
  <g
     id="g40">
    <path
       style="opacity:1"
       fill="#f0f3f4"
       d="M 615.5,645.5 C 617.167,645.5 618.833,645.5 620.5,645.5C 621.339,656.593 627.006,660.093 637.5,656C 641.192,653.45 642.858,649.95 642.5,645.5C 644.199,645.34 645.866,645.506 647.5,646C 647.949,657.39 642.282,663.223 630.5,663.5C 628.035,663.522 625.702,663.022 623.5,662C 621.333,659.833 619.167,657.667 617,655.5C 615.801,652.274 615.301,648.941 615.5,645.5 Z"
       id="path40" />
  </g>
  <g
     id="g41">
    <path
       style="opacity:1"
       fill="#1f2432"
       d="M 553.5,728.5 C 567.817,726.932 581.484,729.099 594.5,735C 598.612,739.004 600.112,743.837 599,749.5C 595.414,763.174 587.58,773.674 575.5,781C 569.024,783.199 562.691,782.865 556.5,780C 542.345,770.521 535.512,757.354 536,740.5C 536.792,738.413 537.959,736.579 539.5,735C 543.877,731.975 548.544,729.808 553.5,728.5 Z"
       id="path41" />
  </g>
  <g
     id="g42">
    <path
       style="opacity:1"
       fill="#686d77"
       d="M 684.5,740.5 C 685.492,740.328 686.158,740.662 686.5,741.5C 688.128,763.281 692.961,784.281 701,804.5C 701.671,805.252 702.504,805.586 703.5,805.5C 703.5,806.167 703.5,806.833 703.5,807.5C 703.34,809.199 703.506,810.866 704,812.5C 709.31,820.161 713.31,828.495 716,837.5C 719.338,844.177 722.672,850.844 726,857.5C 727.576,865.164 729.743,872.497 732.5,879.5C 733.271,883.127 733.938,886.794 734.5,890.5C 734.36,892.03 733.693,893.03 732.5,893.5C 697.817,894.16 663.484,893.493 629.5,891.5C 645.525,871.782 654.525,849.116 656.5,823.5C 657.165,820.183 657.499,816.683 657.5,813C 657.488,809.098 656.821,805.598 655.5,802.5C 658.249,796.5 659.582,790.166 659.5,783.5C 663.792,778.675 667.626,773.342 671,767.5C 675.231,758.268 679.731,749.268 684.5,740.5 Z"
       id="path42" />
  </g>
  <g
     id="g43">
    <path
       style="opacity:1"
       fill="#c4c9d7"
       d="M 686.5,741.5 C 687.987,744.546 688.987,747.879 689.5,751.5C 690.298,749.922 690.798,748.256 691,746.5C 691.49,755.18 692.156,763.847 693,772.5C 696.515,783.521 700.015,794.521 703.5,805.5C 702.504,805.586 701.671,805.252 701,804.5C 692.961,784.281 688.128,763.281 686.5,741.5 Z"
       id="path43" />
  </g>
  <g
     id="g44">
    <path
       style="opacity:1"
       fill="#fafafb"
       d="M 613.5,826.5 C 601.599,841.282 585.932,848.949 566.5,849.5C 547.131,848.981 531.465,841.314 519.5,826.5C 537.486,821.883 553.32,813.217 567,800.5C 579.908,813.706 595.408,822.373 613.5,826.5 Z"
       id="path44" />
  </g>
  <g
     id="g45">
    <path
       style="opacity:1"
       fill="#1e2430"
       d="M 659.5,783.5 C 659.582,790.166 658.249,796.5 655.5,802.5C 646.341,818.752 632.341,826.752 613.5,826.5C 595.408,822.373 579.908,813.706 567,800.5C 553.32,813.217 537.486,821.883 519.5,826.5C 499.671,826.671 485.838,817.671 478,799.5C 475.999,793.322 475.166,786.988 475.5,780.5C 475.646,774.3 477.479,768.633 481,763.5C 484.087,759.413 486.253,759.913 487.5,765C 480.998,782.411 483.998,797.744 496.5,811C 509.35,818.047 522.35,818.047 535.5,811C 546.162,804.764 556.329,797.93 566,790.5C 567.627,790.625 569.127,791.125 570.5,792C 579.341,799.837 589.008,806.504 599.5,812C 612.954,818.63 625.954,817.963 638.5,810C 651.034,797.068 654.034,782.068 647.5,765C 647.767,761.836 649.433,760.836 652.5,762C 657.317,768.286 659.65,775.452 659.5,783.5 Z"
       id="path45" />
  </g>
  <g
     id="g46">
    <path
       style="opacity:1"
       fill="#c6cad6"
       d="M 703.5,807.5 C 707.629,811.205 709.962,815.872 710.5,821.5C 711.5,821.5 712.5,821.5 713.5,821.5C 713.833,825.167 715.833,827.167 719.5,827.5C 721.521,835.438 723.355,843.438 725,851.5C 727.193,856.103 728.693,860.937 729.5,866C 729.769,867.607 730.603,868.774 732,869.5C 732.498,872.817 732.665,876.15 732.5,879.5C 729.743,872.497 727.576,865.164 726,857.5C 722.672,850.844 719.338,844.177 716,837.5C 713.31,828.495 709.31,820.161 704,812.5C 703.506,810.866 703.34,809.199 703.5,807.5 Z"
       id="path46" />
  </g>
  <g
     id="g47">
    <path
       style="opacity:1"
       fill="#a1aab2"
       d="M 475.5,780.5 C 475.166,786.988 475.999,793.322 478,799.5C 485.838,817.671 499.671,826.671 519.5,826.5C 531.465,841.314 547.131,848.981 566.5,849.5C 585.932,848.949 601.599,841.282 613.5,826.5C 632.341,826.752 646.341,818.752 655.5,802.5C 656.821,805.598 657.488,809.098 657.5,813C 657.499,816.683 657.165,820.183 656.5,823.5C 656.666,819.154 656.499,814.821 656,810.5C 653.481,817.202 650.148,823.536 646,829.5C 632.651,845.45 616.484,857.95 597.5,867C 581.62,873.847 565.287,875.18 548.5,871C 516.287,859.45 492.12,838.617 476,808.5C 472.752,801.175 471.252,793.508 471.5,785.5C 472.5,785.5 473.5,785.5 474.5,785.5C 474.216,783.585 474.549,781.919 475.5,780.5 Z"
       id="path47" />
  </g>
  <g
     id="g48">
    <path
       style="opacity:1"
       fill="#aaaebc"
       d="M 629.5,891.5 C 663.484,893.493 697.817,894.16 732.5,893.5C 699.484,894.184 666.317,894.85 633,895.5C 630.648,895.586 629.148,894.586 628.5,892.5C 628.5,891.833 628.833,891.5 629.5,891.5 Z"
       id="path48" />
  </g>
</svg>
