<?xml version="1.0" encoding="UTF-8" standalone="no"?>
<svg
   version="1.1"
   width="50.38141"
   height="50.14862"
   style="clip-rule:evenodd;fill-rule:evenodd;image-rendering:optimizeQuality;shape-rendering:geometricPrecision;text-rendering:geometricPrecision"
   id="svg48"
   sodipodi:docname="petmap2.svg"
   inkscape:version="1.4.2 (ebf0e940d0, 2025-05-08)"
   inkscape:export-filename="petmap2.svg"
   inkscape:export-xdpi="7.02"
   inkscape:export-ydpi="7.02"
   xmlns:inkscape="http://www.inkscape.org/namespaces/inkscape"
   xmlns:sodipodi="http://sodipodi.sourceforge.net/DTD/sodipodi-0.dtd"
   xmlns="http://www.w3.org/2000/svg"
   xmlns:svg="http://www.w3.org/2000/svg">
  <defs
     id="defs48" />
  <sodipodi:namedview
     id="namedview48"
     pagecolor="#ffffff"
     bordercolor="#000000"
     borderopacity="0.25"
     inkscape:showpageshadow="2"
     inkscape:pageopacity="0.0"
     inkscape:pagecheckerboard="0"
     inkscape:deskcolor="#d1d1d1"
     inkscape:zoom="0.71339286"
     inkscape:cx="380.57572"
     inkscape:cy="492.71589"
     inkscape:window-width="1920"
     inkscape:window-height="1008"
     inkscape:window-x="0"
     inkscape:window-y="0"
     inkscape:window-maximized="1"
     inkscape:current-layer="svg48">
    <inkscape:page
       x="0"
       y="0"
       width="553.38141"
       height="684.14862"
       id="page2"
       margin="0"
       bleed="0" />
  </sodipodi:namedview>
  <g
     id="g2"
     transform="translate(-310.50001,-211.35652)">
    <path
       style="opacity:1"
       fill="#fbfcfc"
       d="m 659.5,344.5 c -18.408,1.301 -36.741,3.301 -55,6 0.833,0.333 1.667,0.667 2.5,1 17.784,-2.13 35.617,-3.797 53.5,-5 1,0 2,0 3,0 -1.696,4.712 -3.363,9.378 -5,14 -1,0 -2,0 -3,0 -16.557,-3.063 -33.223,-4.063 -50,-3 13.014,0.905 26.014,1.905 39,3 3.345,1.717 7.011,2.384 11,2 -0.618,2.898 -1.785,5.565 -3.5,8 -0.876,2.135 -2.376,3.469 -4.5,4 -10.544,-3.792 -21.211,-7.292 -32,-10.5 -2.985,-0.868 -5.985,-1.201 -9,-1 12.974,4.046 25.974,8.213 39,12.5 0.591,0.651 1.257,1.318 2,2 -3.221,4.047 -6.221,8.214 -9,12.5 8.148,17.415 15.315,35.248 21.5,53.5 3.031,12.854 5.198,25.854 6.5,39 0,0.333 0,0.667 0,1 -3.149,-0.289 -6.149,0.211 -9,1.5 -9.026,7.901 -15.693,17.401 -20,28.5 -2.104,3.525 -3.604,7.191 -4.5,11 13.719,6.047 24.719,15.38 33,28 8.659,13.648 14.826,28.315 18.5,44 -0.206,2.995 0.46,5.662 2,8 0.728,2.579 1.228,5.246 1.5,8 0.333,22.333 0.667,44.667 1,67 0.714,8.736 1.881,17.403 3.5,26 0.417,2.579 -0.25,4.746 -2,6.5 1.863,1.418 2.363,3.251 1.5,5.5 -2.654,7.613 -5.154,15.28 -7.5,23 -4.769,8.768 -9.269,17.768 -13.5,27 -3.374,5.842 -7.208,11.175 -11.5,16 0.15,-8.048 -2.183,-15.214 -7,-21.5 -3.067,-1.164 -4.733,-0.164 -5,3 6.534,17.068 3.534,32.068 -9,45 -12.546,7.963 -25.546,8.63 -39,2 -10.492,-5.496 -20.159,-12.163 -29,-20 -1.373,-0.875 -2.873,-1.375 -4.5,-1.5 -9.671,7.43 -19.838,14.264 -30.5,20.5 -13.15,7.047 -26.15,7.047 -39,0 -12.502,-13.256 -15.502,-28.589 -9,-46 -1.247,-5.087 -3.413,-5.587 -6.5,-1.5 -3.521,5.133 -5.354,10.8 -5.5,17 -0.951,1.419 -1.284,3.085 -1,5 -1,0 -2,0 -3,0 -0.248,8.008 1.252,15.675 4.5,23 16.12,30.117 40.287,50.95 72.5,62.5 16.787,4.18 33.12,2.847 49,-4 18.984,-9.05 35.151,-21.55 48.5,-37.5 4.148,-5.964 7.481,-12.298 10,-19 0.499,4.321 0.666,8.654 0.5,13 -1.975,25.616 -10.975,48.282 -27,68 -0.667,0 -1,0.333 -1,1 -75.929,0.997 -151.929,1.33 -228,1 0.684,-6.406 1.851,-12.739 3.5,-19 2.664,-7.318 5.331,-14.651 8,-22 2.781,-5.451 5.114,-11.118 7,-17 14.088,-24.885 23.755,-51.552 29,-80 0.667,-1.333 1.333,-1.333 2,0 1.208,3.42 2.708,6.753 4.5,10 1,-0.5 2,-1 3,-1.5 -0.749,-1.734 -1.249,-3.567 -1.5,-5.5 -0.333,1 -0.667,2 -1,3 -4.911,-16.168 -9.411,-32.502 -13.5,-49 1.098,-3.923 1.765,-7.923 2,-12 1.51,-11.432 2.177,-22.932 2,-34.5 -0.587,-16.835 -0.753,-33.668 -0.5,-50.5 2.925,-30.174 14.758,-56.174 35.5,-78 4.738,-4.078 9.738,-7.744 15,-11 3.947,5.194 7.447,10.861 10.5,17 1.451,1.964 3.284,3.297 5.5,4 8.291,11.735 18.957,14.235 32,7.5 1.964,-1.451 3.297,-3.284 4,-5.5 2.361,-1.694 4.361,-3.694 6,-6 0.996,0.086 1.829,-0.248 2.5,-1 0.825,-10.175 0.658,-20.175 -0.5,-30 -2.542,-13.405 -7.542,-25.739 -15,-37 -3.246,-5.918 -6.913,-11.585 -11,-17 -13.704,-21.091 -30.204,-23.424 -49.5,-7 -3.38,5.878 -7.88,10.545 -13.5,14 -1.699,0.16 -3.366,-0.006 -5,-0.5 -0.597,-1.062 -0.93,-2.228 -1,-3.5 1.656,-6.291 3.156,-12.624 4.5,-19 5.871,-14.808 11.205,-29.808 16,-45 1.127,-2.699 2.627,-5.199 4.5,-7.5 -2.486,-3.156 -4.986,-6.322 -7.5,-9.5 -0.579,-1.428 -0.412,-2.762 0.5,-4 13.098,-6.026 26.765,-10.36 41,-13 -5.086,-0.988 -10.086,-0.488 -15,1.5 -9.372,2.622 -18.372,6.122 -27,10.5 -1.439,1.009 -2.772,0.676 -4,-1 -2.034,-4.02 -4.034,-8.02 -6,-12 4.142,-0.54 8.142,-1.206 12,-2 13.309,-1.221 26.642,-2.221 40,-3 -14.436,-1.468 -28.77,-0.801 -43,2 -3.286,0.707 -6.619,1.04 -10,1 -1,0 -2,0 -3,0 0.136,-4.662 -0.864,-8.995 -3,-13 19.935,2.374 39.935,3.54 60,3.5 -17.631,-1.775 -35.298,-3.275 -53,-4.5 -2.198,-0.665 -4.531,-1.332 -7,-2 -0.907,-2.921 -1.24,-5.921 -1,-9 1.333,0 2.667,0 4,0 8.034,0.84 16.034,2.007 24,3.5 24.996,3.575 44.496,-4.925 58.5,-25.5 9.017,-16.934 12.017,-34.934 9,-54 -1.072,-4.047 -2.239,-8.047 -3.5,-12 -0.155,-3.62 -1.155,-6.954 -3,-10 15.144,-1.717 30.144,-0.884 45,2.5 4.395,2.54 9.061,3.04 14,1.5 14.037,-9.682 28.37,-18.848 43,-27.5 8.41,-5.04 13.576,-2.873 15.5,6.5 0.937,24.948 -1.563,49.448 -7.5,73.5 2.54,8.357 4.707,16.857 6.5,25.5 0.5,7.993 0.666,15.993 0.5,24 -2.235,-0.295 -4.235,0.039 -6,1 z"
       id="path2" />
  </g>
  <g
     id="g3"
     transform="translate(-310.50001,-211.35652)">
    <path
       style="opacity:1"
       fill="#686c77"
       d="m 551.5,247.5 c 1.261,3.953 2.428,7.953 3.5,12 3.017,19.066 0.017,37.066 -9,54 -14.004,20.575 -33.504,29.075 -58.5,25.5 -7.966,-1.493 -15.966,-2.66 -24,-3.5 -1.765,-0.961 -3.765,-1.295 -6,-1 0,-1 0,-2 0,-3 -0.584,-12.965 1.416,-25.465 6,-37.5 -1.627,-7.651 -3.294,-15.151 -5,-22.5 0,-0.667 0,-1.333 0,-2 -2.745,-16.85 -3.745,-33.85 -3,-51 0.956,-3.456 3.123,-5.789 6.5,-7 9.724,3.387 18.891,7.887 27.5,13.5 8.489,6.152 16.989,12.319 25.5,18.5 10.47,-3.995 21.303,-6.329 32.5,-7 0.887,3.919 2.221,7.585 4,11 z"
       id="path3" />
  </g>
  <g
     id="g4"
     transform="translate(-310.50001,-211.35652)">
    <path
       style="opacity:1"
       fill="#a58c9a"
       d="m 463.5,224.5 c 1.667,0 3.333,0 5,0 0,1 0,2 0,3 8.478,1.905 15.811,5.905 22,12 1.545,0.952 3.212,1.285 5,1 1.328,2.856 2.328,5.856 3,9 -2.987,0.498 -5.987,0.998 -9,1.5 -1.661,6.159 -5.328,10.659 -11,13.5 -0.862,5.129 -3.529,9.129 -8,12 -4.405,-11.386 -6.738,-23.219 -7,-35.5 0.883,-5.45 0.883,-10.95 0,-16.5 z"
       id="path4" />
  </g>
  <g
     id="g5"
     transform="translate(-310.50001,-211.35652)">
    <path
       style="opacity:1"
       fill="#9992a1"
       d="m 654.5,220.5 c 1.333,0 2.667,0 4,0 1.014,8.977 1.181,17.977 0.5,27 -2.408,12.26 -4.408,24.593 -6,37 -9.466,-14.968 -21.633,-26.968 -36.5,-36 4.347,-4.345 9.014,-8.345 14,-12 8.065,-5.357 16.065,-10.69 24,-16 z"
       id="path5" />
  </g>
  <g
     id="g6"
     transform="translate(-310.50001,-211.35652)">
    <path
       style="opacity:1"
       fill="#1d232f"
       d="m 734.5,436.5 c 0.963,0.863 0.963,1.53 0,2 -3.622,-3.125 -7.622,-5.625 -12,-7.5 -3.422,-2.192 -6.088,-5.025 -8,-8.5 1,0 2,0 3,0 1.478,0.262 2.811,-0.071 4,-1 0.442,-1.239 1.109,-2.239 2,-3 1.53,0.567 3.03,1.233 4.5,2 2.105,-4.258 5.605,-5.925 10.5,-5 0.225,2.216 -0.608,3.883 -2.5,5 -0.71,-1.473 -1.876,-2.14 -3.5,-2 -0.592,8.288 1.908,9.621 7.5,4 2.422,0.454 4.922,0.621 7.5,0.5 -0.667,0.333 -1.333,0.667 -2,1 3.679,2.035 7.679,3.201 12,3.5 1.241,-0.537 2.408,-1.204 3.5,-2 2.099,0.787 4.266,1.12 6.5,1 0,-1.333 0,-2.667 0,-4 -3.894,0.39 -7.56,-0.277 -11,-2 0.363,-0.683 0.696,-1.35 1,-2 25.624,5.594 48.291,-0.073 68,-17 4.376,-3.374 8.042,-7.374 11,-12 12.032,-16.615 16.532,-35.281 13.5,-56 -10.19,-43.508 -37.69,-64.341 -82.5,-62.5 -9.011,1.17 -17.344,4.003 -25,8.5 -7.464,3.13 -13.797,7.797 -19,14 -9.574,9.446 -16.074,20.779 -19.5,34 -6.563,44.169 10.604,74.502 51.5,91 -0.418,0.722 -1.084,1.222 -2,1.5 2.381,1.247 2.047,1.58 -1,1 -2.739,-0.798 -4.739,-2.465 -6,-5 -2.333,-0.333 -4.667,-0.667 -7,-1 0.333,-0.333 0.667,-0.667 1,-1 -1.431,-0.465 -2.597,-1.299 -3.5,-2.5 -0.333,0.667 -0.667,1.333 -1,2 -1.38,-2.558 -2.88,-2.558 -4.5,0 -1.656,-1.522 -2.823,-1.189 -3.5,1 -1.874,-2.36 -3.374,-2.027 -4.5,1 -4.481,-1.959 -8.315,-4.959 -11.5,-9 -22.811,-29 -28.145,-61 -16,-96 15.702,-33.774 42.202,-51.44 79.5,-53 47.079,2.247 76.246,26.247 87.5,72 4.363,35.946 -7.471,65.113 -35.5,87.5 -27.313,18.238 -56.313,21.404 -87,9.5 -2.603,1.775 -4.77,4.108 -6.5,7 -0.74,1.249 -0.573,2.249 0.5,3 z"
       id="path6" />
  </g>
  <g
     id="g7"
     transform="translate(-310.50001,-211.35652)">
    <path
       style="opacity:1"
       fill="#b0b9c6"
       d="m 455.5,218.5 c -0.745,17.15 0.255,34.15 3,51 -1.29,-0.558 -2.123,-1.558 -2.5,-3 -2.664,-16.148 -2.831,-32.148 -0.5,-48 z"
       id="path7" />
  </g>
  <g
     id="g8"
     transform="translate(-310.50001,-211.35652)">
    <path
       style="opacity:1"
       fill="#cbdde1"
       d="m 836.5,389.5 c -0.178,-1.195 -0.511,-2.362 -1,-3.5 0.392,-1.011 1.059,-1.511 2,-1.5 -0.674,-2.674 -2.341,-4.341 -5,-5 -0.25,-4.224 -1.75,-7.891 -4.5,-11 -18.307,-18.562 -36.474,-37.229 -54.5,-56 -2.773,-2.563 -4.773,-5.563 -6,-9 -4.314,-0.981 -6.981,-3.648 -8,-8 -1.933,-0.229 -3.6,-1.062 -5,-2.5 -3.675,-4.896 -7.675,-9.396 -12,-13.5 7.656,-4.497 15.989,-7.33 25,-8.5 44.81,-1.841 72.31,18.992 82.5,62.5 3.032,20.719 -1.468,39.385 -13.5,56 z"
       id="path8" />
  </g>
  <g
     id="g9"
     transform="translate(-310.50001,-211.35652)">
    <path
       style="opacity:1"
       fill="#d2e4e8"
       d="m 742.5,279.5 c 4.325,4.104 8.325,8.604 12,13.5 1.4,1.438 3.067,2.271 5,2.5 1.019,4.352 3.686,7.019 8,8 1.227,3.437 3.227,6.437 6,9 18.026,18.771 36.193,37.438 54.5,56 2.75,3.109 4.25,6.776 4.5,11 2.659,0.659 4.326,2.326 5,5 -0.941,-0.011 -1.608,0.489 -2,1.5 0.489,1.138 0.822,2.305 1,3.5 -2.958,4.626 -6.624,8.626 -11,12 -32.938,-31.77 -64.938,-64.27 -96,-97.5 -3.858,-0.079 -7.524,-0.746 -11,-2 2.395,-0.681 4.728,-1.515 7,-2.5 -1.604,-1.679 -2.271,-3.679 -2,-6 5.203,-6.203 11.536,-10.87 19,-14 z"
       id="path9" />
  </g>
  <g
     id="g10"
     transform="translate(-310.50001,-211.35652)">
    <path
       style="opacity:1"
       fill="#cadce0"
       d="m 723.5,293.5 c -0.271,2.321 0.396,4.321 2,6 -2.272,0.985 -4.605,1.819 -7,2.5 3.476,1.254 7.142,1.921 11,2 31.062,33.23 63.062,65.73 96,97.5 -19.709,16.927 -42.376,22.594 -68,17 -0.667,0 -1.333,0 -2,0 -40.896,-16.498 -58.063,-46.831 -51.5,-91 3.426,-13.221 9.926,-24.554 19.5,-34 z"
       id="path10" />
  </g>
  <g
     id="g11"
     transform="translate(-310.50001,-211.35652)">
    <path
       style="opacity:1"
       fill="#20232e"
       d="m 511.5,302.5 c 10.101,0.121 14.268,5.121 12.5,15 -3.157,4.992 -7.657,6.825 -13.5,5.5 -6.13,-4.073 -7.63,-9.573 -4.5,-16.5 1.812,-1.477 3.645,-2.81 5.5,-4 z"
       id="path11" />
  </g>
  <g
     id="g12"
     transform="translate(-310.50001,-211.35652)">
    <path
       style="opacity:1"
       fill="#1d2430"
       d="m 604.5,303.5 c 10.513,-1.645 15.346,2.689 14.5,13 -2.253,6.426 -6.753,8.926 -13.5,7.5 -8.864,-6.372 -9.198,-13.205 -1,-20.5 z"
       id="path12" />
  </g>
  <g
     id="g13"
     transform="translate(-310.50001,-211.35652)">
    <path
       style="opacity:1"
       fill="#a9afbe"
       d="m 458.5,271.5 c 1.706,7.349 3.373,14.849 5,22.5 -4.584,12.035 -6.584,24.535 -6,37.5 -1.284,-11.273 -0.617,-22.606 2,-34 1.791,-0.462 2.791,-1.629 3,-3.5 -3.081,-7.114 -4.414,-14.614 -4,-22.5 z"
       id="path13" />
  </g>
  <g
     id="g14"
     transform="translate(-310.50001,-211.35652)">
    <path
       style="opacity:1"
       fill="#535557"
       d="m 460.5,347.5 c 2.107,-0.968 4.441,-1.302 7,-1 17.702,1.225 35.369,2.725 53,4.5 -20.065,0.04 -40.065,-1.126 -60,-3.5 z"
       id="path14" />
  </g>
  <g
     id="g15"
     transform="translate(-310.50001,-211.35652)">
    <path
       style="opacity:1"
       fill="#2a2e2f"
       d="m 659.5,344.5 c 1.373,-0.157 2.707,0.01 4,0.5 -1.237,0.232 -2.237,0.732 -3,1.5 -17.883,1.203 -35.716,2.87 -53.5,5 -0.833,-0.333 -1.667,-0.667 -2.5,-1 18.259,-2.699 36.592,-4.699 55,-6 z"
       id="path15" />
  </g>
  <g
     id="g16"
     transform="translate(-310.50001,-211.35652)">
    <path
       style="opacity:1"
       fill="#35383c"
       d="m 655.5,360.5 c -3.494,0.835 -7.16,0.835 -11,0 -12.986,-1.095 -25.986,-2.095 -39,-3 16.777,-1.063 33.443,-0.063 50,3 z"
       id="path16" />
  </g>
  <g
     id="g17"
     transform="translate(-310.50001,-211.35652)">
    <path
       style="opacity:1"
       fill="#3a3e43"
       d="m 479.5,360.5 c -1.291,0.237 -2.291,-0.096 -3,-1 14.23,-2.801 28.564,-3.468 43,-2 -13.358,0.779 -26.691,1.779 -40,3 z"
       id="path17" />
  </g>
  <g
     id="g18"
     transform="translate(-310.50001,-211.35652)">
    <path
       style="opacity:1"
       fill="#6d6d6f"
       d="m 476.5,359.5 c 0.709,0.904 1.709,1.237 3,1 -3.858,0.794 -7.858,1.46 -12,2 -2.198,0.091 -2.531,-0.575 -1,-2 3.381,0.04 6.714,-0.293 10,-1 z"
       id="path18" />
  </g>
  <g
     id="g19"
     transform="translate(-310.50001,-211.35652)">
    <path
       style="opacity:1"
       fill="#343638"
       d="m 478.5,376.5 c -0.667,0 -1,-0.333 -1,-1 8.628,-4.378 17.628,-7.878 27,-10.5 4.914,-1.988 9.914,-2.488 15,-1.5 -14.235,2.64 -27.902,6.974 -41,13 z"
       id="path19" />
  </g>
  <g
     id="g20"
     transform="translate(-310.50001,-211.35652)">
    <path
       style="opacity:1"
       fill="#323334"
       d="m 647.5,374.5 c -0.342,0.838 -1.008,1.172 -2,1 -13.026,-4.287 -26.026,-8.454 -39,-12.5 3.015,-0.201 6.015,0.132 9,1 10.789,3.208 21.456,6.708 32,10.5 z"
       id="path20" />
  </g>
  <g
     id="g21"
     transform="translate(-310.50001,-211.35652)">
    <path
       style="opacity:1"
       fill="#1e252e"
       d="m 552.5,339.5 c 6.009,-0.166 12.009,10e-4 18,0.5 4.615,1.077 6.115,3.91 4.5,8.5 -2.243,4.248 -5.243,7.914 -9,11 0.043,8.882 4.543,13.882 13.5,15 2.134,-0.015 4.134,-0.515 6,-1.5 1.855,-1.855 3.688,-3.688 5.5,-5.5 2.995,1.018 3.328,2.684 1,5 -7.704,7.484 -15.87,7.984 -24.5,1.5 -1.477,-2.445 -3.31,-4.612 -5.5,-6.5 -6.353,10.674 -15.186,13.507 -26.5,8.5 -1.719,-1.87 -2.719,-4.037 -3,-6.5 12.278,8.81 21.278,6.143 27,-8 -5.162,-4.33 -8.829,-9.663 -11,-16 0.573,-2.562 1.907,-4.562 4,-6 z"
       id="path21" />
  </g>
  <g
     id="g22"
     transform="translate(-310.50001,-211.35652)">
    <path
       style="opacity:1"
       fill="#1b2133"
       d="m 755.5,418.5 c 0.667,0 1.333,0 2,0 -0.304,0.65 -0.637,1.317 -1,2 3.44,1.723 7.106,2.39 11,2 0,1.333 0,2.667 0,4 -2.234,0.12 -4.401,-0.213 -6.5,-1 -1.092,0.796 -2.259,1.463 -3.5,2 -4.321,-0.299 -8.321,-1.465 -12,-3.5 0.667,-0.333 1.333,-0.667 2,-1 -2.578,0.121 -5.078,-0.046 -7.5,-0.5 -5.592,5.621 -8.092,4.288 -7.5,-4 1.624,-0.14 2.79,0.527 3.5,2 1.892,-1.117 2.725,-2.784 2.5,-5 -4.895,-0.925 -8.395,0.742 -10.5,5 -1.47,-0.767 -2.97,-1.433 -4.5,-2 0,-1 0,-2 0,-3 1.126,-3.027 2.626,-3.36 4.5,-1 0.677,-2.189 1.844,-2.522 3.5,-1 1.62,-2.558 3.12,-2.558 4.5,0 0.333,-0.667 0.667,-1.333 1,-2 0.903,1.201 2.069,2.035 3.5,2.5 -0.333,0.333 -0.667,0.667 -1,1 2.333,0.333 4.667,0.667 7,1 1.261,2.535 3.261,4.202 6,5 3.047,0.58 3.381,0.247 1,-1 0.916,-0.278 1.582,-0.778 2,-1.5 z"
       id="path22" />
  </g>
  <g
     id="g23"
     transform="translate(-310.50001,-211.35652)">
    <path
       style="opacity:1"
       fill="#686c77"
       d="m 714.5,422.5 c 1.912,3.475 4.578,6.308 8,8.5 4.378,1.875 8.378,4.375 12,7.5 0.963,-0.47 0.963,-1.137 0,-2 1.752,-0.082 2.752,0.751 3,2.5 -0.903,2.877 -1.903,5.71 -3,8.5 -16.25,25.866 -31.917,51.866 -47,78 -6.327,-4.663 -13.327,-7.996 -21,-10 0.11,-10.876 0.11,-21.543 0,-32 0,-0.333 0,-0.667 0,-1 1.984,0.117 3.65,-0.55 5,-2 2.527,-5.691 6.027,-10.691 10.5,-15 1.456,-2.576 2.623,-5.242 3.5,-8 6.912,-8.82 13.079,-18.154 18.5,-28 2.022,-2.022 4.022,-4.022 6,-6 1.44,-0.648 2.94,-0.981 4.5,-1 z"
       id="path23" />
  </g>
  <g
     id="g24"
     transform="translate(-310.50001,-211.35652)">
    <path
       style="opacity:1"
       fill="#c5c9d5"
       d="m 717.5,422.5 c -1,0 -2,0 -3,0 -1.56,0.019 -3.06,0.352 -4.5,1 -1.978,1.978 -3.978,3.978 -6,6 -5.421,9.846 -11.588,19.18 -18.5,28 0.787,-3.359 2.12,-6.525 4,-9.5 -2.516,-2.836 -2.349,-5.669 0.5,-8.5 0.237,4.515 1.903,5.182 5,2 3.058,-7.117 6.891,-13.783 11.5,-20 3.9,-1.248 7.567,-0.915 11,1 z"
       id="path24" />
  </g>
  <g
     id="g25"
     transform="translate(-310.50001,-211.35652)">
    <path
       style="opacity:1"
       fill="#676c76"
       d="m 529.5,458.5 c -1,0 -2,0 -3,0 -1.173,-3.254 -3.506,-4.42 -7,-3.5 15.999,18.493 27.999,39.327 36,62.5 0.461,8.793 -0.205,17.46 -2,26 -1.639,2.306 -3.639,4.306 -6,6 0.285,-1.788 -0.048,-3.455 -1,-5 -6.4,10.212 -15.067,12.712 -26,7.5 -2.775,-2.403 -4.775,-5.237 -6,-8.5 -1.024,1.352 -2.024,2.685 -3,4 -2.216,-0.703 -4.049,-2.036 -5.5,-4 -3.053,-6.139 -6.553,-11.806 -10.5,-17 0.912,-1.238 1.079,-2.572 0.5,-4 -1.755,-3.485 -3.588,-6.819 -5.5,-10 -3.253,-4.24 -5.586,-8.907 -7,-14 -1,0 -2,0 -3,0 -0.866,-4.386 -3.199,-7.886 -7,-10.5 -4.637,-2.228 -8.804,-5.061 -12.5,-8.5 -0.667,0.667 -1.333,1.333 -2,2 -0.191,2.208 -0.691,4.208 -1.5,6 -0.17,-6.986 1.164,-13.653 4,-20 1.791,-0.67 3.458,-1.337 5,-2 5.62,-3.455 10.12,-8.122 13.5,-14 19.296,-16.424 35.796,-14.091 49.5,7 z"
       id="path25" />
  </g>
  <g
     id="g26"
     transform="translate(-310.50001,-211.35652)">
    <path
       style="opacity:1"
       fill="#3d464e"
       d="m 526.5,458.5 c 1,0 2,0 3,0 4.087,5.415 7.754,11.082 11,17 -6.143,-5.076 -10.809,-10.743 -14,-17 z"
       id="path26" />
  </g>
  <g
     id="g27"
     transform="translate(-310.50001,-211.35652)">
    <path
       style="opacity:1"
       fill="#5a5f68"
       d="m 490.5,512.5 c -11.775,-0.28 -23.108,1.72 -34,6 -0.101,-10.352 0.233,-20.685 1,-31 0.809,-1.792 1.309,-3.792 1.5,-6 0.667,-0.667 1.333,-1.333 2,-2 3.696,3.439 7.863,6.272 12.5,8.5 3.801,2.614 6.134,6.114 7,10.5 1,0 2,0 3,0 1.414,5.093 3.747,9.76 7,14 z"
       id="path27" />
  </g>
  <g
     id="g28"
     transform="translate(-310.50001,-211.35652)">
    <path
       style="opacity:1"
       fill="#272d34"
       d="m 526.5,458.5 c 3.191,6.257 7.857,11.924 14,17 7.458,11.261 12.458,23.595 15,37 0,1.667 0,3.333 0,5 -8.001,-23.173 -20.001,-44.007 -36,-62.5 3.494,-0.92 5.827,0.246 7,3.5 z"
       id="path28" />
  </g>
  <g
     id="g29"
     transform="translate(-310.50001,-211.35652)">
    <path
       style="opacity:1"
       fill="#51565d"
       d="m 666.5,483.5 c 0.11,10.457 0.11,21.124 0,32 -9.56,-2.366 -19.226,-3.033 -29,-2 4.307,-11.099 10.974,-20.599 20,-28.5 2.851,-1.289 5.851,-1.789 9,-1.5 z"
       id="path29" />
  </g>
  <g
     id="g30"
     transform="translate(-310.50001,-211.35652)">
    <path
       style="opacity:1"
       fill="#382d30"
       d="m 607.5,451.5 c 1.855,-0.228 2.688,0.439 2.5,2 -14.859,19.378 -27.026,40.378 -36.5,63 -0.849,-3.31 -0.682,-6.644 0.5,-10 7.137,-20.97 18.304,-39.303 33.5,-55 z"
       id="path30" />
  </g>
  <g
     id="g31"
     transform="translate(-310.50001,-211.35652)">
    <path
       style="opacity:1"
       fill="#1e2431"
       d="m 456.5,518.5 c 10.892,-4.28 22.225,-6.28 34,-6 1.912,3.181 3.745,6.515 5.5,10 0.579,1.428 0.412,2.762 -0.5,4 -5.262,3.256 -10.262,6.922 -15,11 -20.742,21.826 -32.575,47.826 -35.5,78 -0.253,16.832 -0.087,33.665 0.5,50.5 0.177,11.568 -0.49,23.068 -2,34.5 -4.15,17.791 -13.483,32.291 -28,43.5 -7.691,4.777 -12.858,2.944 -15.5,-5.5 0.495,-11.205 -2.171,-21.538 -8,-31 -13,-15 -26,-30 -39,-45 -11.51,-17.883 -15.177,-37.216 -11,-58 5.019,-10.826 12.519,-19.66 22.5,-26.5 22.018,-13.005 43.351,-27.005 64,-42 -4.41,-32.487 -18.41,-60.153 -42,-83 -7.655,-7.33 -16.655,-12.33 -27,-15 -8.327,-1.315 -16.327,-0.315 -24,3 -14.114,2.958 -22.447,-2.542 -25,-16.5 0.368,-3.138 1.201,-6.138 2.5,-9 5.492,-6.331 12.325,-10.498 20.5,-12.5 20.506,-2.123 39.506,2.211 57,13 27.47,18.808 46.637,43.975 57.5,75.5 3.111,9.61 5.945,18.61 8.5,27 z"
       id="path31" />
  </g>
  <g
     id="g32"
     transform="translate(-310.50001,-211.35652)">
    <path
       style="opacity:1"
       fill="#1e2432"
       d="m 666.5,515.5 c 7.673,2.004 14.673,5.337 21,10 28.912,20.802 58.579,40.635 89,59.5 13.895,13.73 18.728,30.23 14.5,49.5 -2.351,10.035 -6.351,19.369 -12,28 -12.955,16.624 -26.288,32.957 -40,49 -3.64,9.631 -5.64,19.631 -6,30 -2.759,4.803 -6.759,6.136 -12,4 -14.155,-9.962 -23.655,-23.295 -28.5,-40 -1.619,-8.597 -2.786,-17.264 -3.5,-26 -0.333,-22.333 -0.667,-44.667 -1,-67 -0.272,-2.754 -0.772,-5.421 -1.5,-8 -0.065,-2.928 -0.732,-5.595 -2,-8 -3.674,-15.685 -9.841,-30.352 -18.5,-44 -8.281,-12.62 -19.281,-21.953 -33,-28 0.896,-3.809 2.396,-7.475 4.5,-11 9.774,-1.033 19.44,-0.366 29,2 z"
       id="path32" />
  </g>
  <g
     id="g33"
     transform="translate(-310.50001,-211.35652)">
    <path
       style="opacity:1"
       fill="#d1d4e2"
       d="m 555.5,512.5 c 1.158,9.825 1.325,19.825 0.5,30 -0.671,0.752 -1.504,1.086 -2.5,1 1.795,-8.54 2.461,-17.207 2,-26 0,-1.667 0,-3.333 0,-5 z"
       id="path33" />
  </g>
  <g
     id="g34"
     transform="translate(-310.50001,-211.35652)">
    <path
       style="opacity:1"
       fill="#222730"
       d="m 614.5,543.5 c 2.448,-0.415 3.781,0.585 4,3 -2.377,6.538 -7.044,10.371 -14,11.5 -8.223,2.22 -14.223,-0.447 -18,-8 0.225,-1.621 1.058,-2.788 2.5,-3.5 5.42,7.306 12.253,8.806 20.5,4.5 2.297,-2.099 3.964,-4.599 5,-7.5 z"
       id="path34" />
  </g>
  <g
     id="g35"
     transform="translate(-310.50001,-211.35652)">
    <path
       style="opacity:1"
       fill="#24242a"
       d="m 547.5,549.5 c -0.703,2.216 -2.036,4.049 -4,5.5 -13.043,6.735 -23.709,4.235 -32,-7.5 0.976,-1.315 1.976,-2.648 3,-4 1.225,3.263 3.225,6.097 6,8.5 10.933,5.212 19.6,2.712 26,-7.5 0.952,1.545 1.285,3.212 1,5 z"
       id="path35" />
  </g>
  <g
     id="g36"
     transform="translate(-310.50001,-211.35652)">
    <path
       style="opacity:1"
       fill="#1f2432"
       d="m 507.5,587.5 c 11.291,-1.41 21.957,0.424 32,5.5 6.559,5.284 10.393,12.117 11.5,20.5 2.799,20.68 -1.535,39.68 -13,57 -8.588,11.259 -17.921,21.926 -28,32 -4.911,6.155 -9.577,12.489 -14,19 -6.143,6.638 -13.31,7.804 -21.5,3.5 -1.287,-1.41 -2.454,-2.91 -3.5,-4.5 -10.789,-25.976 -14.789,-52.976 -12,-81 6.428,-26.593 22.595,-43.926 48.5,-52 z"
       id="path36" />
  </g>
  <g
     id="g37"
     transform="translate(-310.50001,-211.35652)">
    <path
       style="opacity:1"
       fill="#1e2431"
       d="m 606.5,587.5 c 37.476,-0.518 60.309,17.482 68.5,54 2.61,27.403 -1.39,53.737 -12,79 -5.18,5.924 -11.68,8.091 -19.5,6.5 -2.124,-1.122 -3.957,-2.622 -5.5,-4.5 -4.264,-7.528 -9.264,-14.528 -15,-21 -10.079,-10.074 -19.412,-20.741 -28,-32 -12.41,-19.461 -16.077,-40.461 -11,-63 4.5,-9.985 12,-16.318 22.5,-19 z"
       id="path37" />
  </g>
  <g
     id="g38"
     transform="translate(-310.50001,-211.35652)">
    <path
       style="opacity:1"
       fill="#a3a7ac"
       d="m 684.5,596.5 c 1.268,2.405 1.935,5.072 2,8 -1.54,-2.338 -2.206,-5.005 -2,-8 z"
       id="path38" />
  </g>
  <g
     id="g39"
     transform="translate(-310.50001,-211.35652)">
    <path
       style="opacity:1"
       fill="#eceef0"
       d="m 485.5,645.5 c 1.667,0 3.333,0 5,0 1.266,11.802 7.266,14.968 18,9.5 2.402,-2.703 3.735,-5.87 4,-9.5 1.967,-0.239 3.801,0.094 5.5,1 -0.245,10.745 -5.745,16.412 -16.5,17 -8.415,0.094 -13.915,-3.906 -16.5,-12 -0.678,-2.098 -0.511,-4.098 0.5,-6 z"
       id="path39" />
  </g>
  <g
     id="g40"
     transform="translate(-310.50001,-211.35652)">
    <path
       style="opacity:1"
       fill="#f0f3f4"
       d="m 615.5,645.5 c 1.667,0 3.333,0 5,0 0.839,11.093 6.506,14.593 17,10.5 3.692,-2.55 5.358,-6.05 5,-10.5 1.699,-0.16 3.366,0.006 5,0.5 0.449,11.39 -5.218,17.223 -17,17.5 -2.465,0.022 -4.798,-0.478 -7,-1.5 -2.167,-2.167 -4.333,-4.333 -6.5,-6.5 -1.199,-3.226 -1.699,-6.559 -1.5,-10 z"
       id="path40" />
  </g>
  <g
     id="g41"
     transform="translate(-310.50001,-211.35652)">
    <path
       style="opacity:1"
       fill="#1f2432"
       d="m 553.5,728.5 c 14.317,-1.568 27.984,0.599 41,6.5 4.112,4.004 5.612,8.837 4.5,14.5 -3.586,13.674 -11.42,24.174 -23.5,31.5 -6.476,2.199 -12.809,1.865 -19,-1 -14.155,-9.479 -20.988,-22.646 -20.5,-39.5 0.792,-2.087 1.959,-3.921 3.5,-5.5 4.377,-3.025 9.044,-5.192 14,-6.5 z"
       id="path41" />
  </g>
  <g
     id="g42"
     transform="translate(-310.50001,-211.35652)">
    <path
       style="opacity:1"
       fill="#686d77"
       d="m 684.5,740.5 c 0.992,-0.172 1.658,0.162 2,1 1.628,21.781 6.461,42.781 14.5,63 0.671,0.752 1.504,1.086 2.5,1 0,0.667 0,1.333 0,2 -0.16,1.699 0.006,3.366 0.5,5 5.31,7.661 9.31,15.995 12,25 3.338,6.677 6.672,13.344 10,20 1.576,7.664 3.743,14.997 6.5,22 0.771,3.627 1.438,7.294 2,11 -0.14,1.53 -0.807,2.53 -2,3 -34.683,0.66 -69.016,-0.007 -103,-2 16.025,-19.718 25.025,-42.384 27,-68 0.665,-3.317 0.999,-6.817 1,-10.5 -0.012,-3.902 -0.679,-7.402 -2,-10.5 2.749,-6 4.082,-12.334 4,-19 4.292,-4.825 8.126,-10.158 11.5,-16 4.231,-9.232 8.731,-18.232 13.5,-27 z"
       id="path42" />
  </g>
  <g
     id="g43"
     transform="translate(-310.50001,-211.35652)">
    <path
       style="opacity:1"
       fill="#c4c9d7"
       d="m 686.5,741.5 c 1.487,3.046 2.487,6.379 3,10 0.798,-1.578 1.298,-3.244 1.5,-5 0.49,8.68 1.156,17.347 2,26 3.515,11.021 7.015,22.021 10.5,33 -0.996,0.086 -1.829,-0.248 -2.5,-1 -8.039,-20.219 -12.872,-41.219 -14.5,-63 z"
       id="path43" />
  </g>
  <g
     id="g44"
     transform="translate(-310.50001,-211.35652)">
    <path
       style="opacity:1"
       fill="#fafafb"
       d="m 613.5,826.5 c -11.901,14.782 -27.568,22.449 -47,23 -19.369,-0.519 -35.035,-8.186 -47,-23 17.986,-4.617 33.82,-13.283 47.5,-26 12.908,13.206 28.408,21.873 46.5,26 z"
       id="path44" />
  </g>
  <g
     id="g45"
     transform="translate(-310.50001,-211.35652)">
    <path
       style="opacity:1"
       fill="#1e2430"
       d="m 659.5,783.5 c 0.082,6.666 -1.251,13 -4,19 -9.159,16.252 -23.159,24.252 -42,24 -18.092,-4.127 -33.592,-12.794 -46.5,-26 -13.68,12.717 -29.514,21.383 -47.5,26 -19.829,0.171 -33.662,-8.829 -41.5,-27 -2.001,-6.178 -2.834,-12.512 -2.5,-19 0.146,-6.2 1.979,-11.867 5.5,-17 3.087,-4.087 5.253,-3.587 6.5,1.5 -6.502,17.411 -3.502,32.744 9,46 12.85,7.047 25.85,7.047 39,0 10.662,-6.236 20.829,-13.07 30.5,-20.5 1.627,0.125 3.127,0.625 4.5,1.5 8.841,7.837 18.508,14.504 29,20 13.454,6.63 26.454,5.963 39,-2 12.534,-12.932 15.534,-27.932 9,-45 0.267,-3.164 1.933,-4.164 5,-3 4.817,6.286 7.15,13.452 7,21.5 z"
       id="path45" />
  </g>
  <g
     id="g46"
     transform="translate(-310.50001,-211.35652)">
    <path
       style="opacity:1"
       fill="#c6cad6"
       d="m 703.5,807.5 c 4.129,3.705 6.462,8.372 7,14 1,0 2,0 3,0 0.333,3.667 2.333,5.667 6,6 2.021,7.938 3.855,15.938 5.5,24 2.193,4.603 3.693,9.437 4.5,14.5 0.269,1.607 1.103,2.774 2.5,3.5 0.498,3.317 0.665,6.65 0.5,10 -2.757,-7.003 -4.924,-14.336 -6.5,-22 -3.328,-6.656 -6.662,-13.323 -10,-20 -2.69,-9.005 -6.69,-17.339 -12,-25 -0.494,-1.634 -0.66,-3.301 -0.5,-5 z"
       id="path46" />
  </g>
  <g
     id="g47"
     transform="translate(-310.50001,-211.35652)">
    <path
       style="opacity:1"
       fill="#a1aab2"
       d="m 475.5,780.5 c -0.334,6.488 0.499,12.822 2.5,19 7.838,18.171 21.671,27.171 41.5,27 11.965,14.814 27.631,22.481 47,23 19.432,-0.551 35.099,-8.218 47,-23 18.841,0.252 32.841,-7.748 42,-24 1.321,3.098 1.988,6.598 2,10.5 -10e-4,3.683 -0.335,7.183 -1,10.5 0.166,-4.346 -10e-4,-8.679 -0.5,-13 -2.519,6.702 -5.852,13.036 -10,19 -13.349,15.95 -29.516,28.45 -48.5,37.5 -15.88,6.847 -32.213,8.18 -49,4 -32.213,-11.55 -56.38,-32.383 -72.5,-62.5 -3.248,-7.325 -4.748,-14.992 -4.5,-23 1,0 2,0 3,0 -0.284,-1.915 0.049,-3.581 1,-5 z"
       id="path47" />
  </g>
  <g
     id="g48"
     transform="translate(-310.50001,-211.35652)">
    <path
       style="opacity:1"
       fill="#aaaebc"
       d="m 629.5,891.5 c 33.984,1.993 68.317,2.66 103,2 -33.016,0.684 -66.183,1.35 -99.5,2 -2.352,0.086 -3.852,-0.914 -4.5,-3 0,-0.667 0.333,-1 1,-1 z"
       id="path48" />
  </g>
</svg>
